# xmcd CD database file
#
# Track frame offsets:
#	150
#	37315
#	77459
#	97461
#	123257
#	152511
#	189585
#	210142
#
# Disc length: 3042 seconds
#
# Revision: 0
# Processed by: cddbd v1.5.2PL0 Copyright (c) Steve Scherf et al.
# Submitted via: CDex 1.51
#
DISCID=620be008
DTITLE=Franklin Clover Seals - Summer Serenade
DYEAR=2007
DGENRE=Jazz
TTITLE0=Don't Give Up
TTITLE1=Summer Serenade
TTITLE2=Change In The Wind
TTITLE3=I Loves You Porgy
TTITLE4=Dave
TTITLE5=Little Miss Laurie
TTITLE6=Week In The Review
TTITLE7=IRIS
EXTD=YEAR: 2007
EXTT0=
EXTT1=
EXTT2=
EXTT3=
EXTT4=
EXTT5=
EXTT6=
EXTT7=
PLAYORDER=
